<svg width="1024" height="1024" viewBox="0 0 1024 1024" fill="none" xmlns="http://www.w3.org/2000/svg">
<path d="M896 0H128C57.3076 0 0 57.3076 0 128V896C0 966.692 57.3076 1024 128 1024H896C966.692 1024 1024 966.692 1024 896V128C1024 57.3076 966.692 0 896 0Z" fill="#00913A"/>
<path d="M501.82 561.13L363.13 783C349.81 804.31 365.13 832 390.26 832H882.52C910.79 832 928.03 800.9 913.05 776.92L559.49 211.23C537.55 176.13 486.49 176.13 464.49 211.23L107.13 783C93.81 804.31 109.13 832 134.26 832H214.17C218.24 832 222.243 830.964 225.803 828.991C229.363 827.018 232.363 824.171 234.52 820.72L501.82 393C502.898 391.272 504.399 389.847 506.18 388.859C507.96 387.872 509.964 387.353 512 387.353C514.037 387.353 516.04 387.872 517.821 388.859C519.602 389.847 521.102 391.272 522.18 393L705.05 685.6C706.195 687.417 706.832 689.507 706.894 691.654C706.956 693.801 706.441 695.925 705.402 697.805C704.363 699.684 702.838 701.251 700.988 702.341C699.137 703.43 697.028 704.003 694.88 704H585.12C582.983 703.99 580.887 703.409 579.049 702.318C577.211 701.227 575.698 699.664 574.667 697.793C573.635 695.921 573.122 693.807 573.18 691.671C573.239 689.534 573.867 687.452 575 685.64L583.5 672C584.692 670.093 585.324 667.889 585.324 665.64C585.324 663.391 584.692 661.187 583.5 659.28L522.18 561.17C521.105 559.44 519.608 558.012 517.829 557.021C516.05 556.03 514.048 555.507 512.011 555.503C509.975 555.499 507.971 556.014 506.188 556.998C504.405 557.982 502.902 559.404 501.82 561.13Z" fill="white"/>
</svg>
