<svg width="1024" height="1024" viewBox="0 0 1024 1024" fill="none" xmlns="http://www.w3.org/2000/svg">
<path d="M1024 512C1024 794.77 794.77 1024 512 1024C229.23 1024 0 794.77 0 512C0 229.23 229.23 0 512 0C794.77 0 1024 229.23 1024 512Z" fill="#00913A"/>
<path d="M504.487 509.052L399.157 677.744C389.041 693.947 400.676 715 419.761 715H793.617C815.087 715 828.18 691.354 816.803 673.121L548.286 243.015C531.623 216.328 492.845 216.328 476.136 243.015L204.733 677.744C194.617 693.947 206.252 715 225.337 715H286.026C289.118 715 292.158 714.212 294.862 712.712C297.565 711.212 299.843 709.048 301.482 706.424L504.487 381.219C505.306 379.905 506.446 378.822 507.798 378.071C509.151 377.32 510.672 376.926 512.219 376.926C513.765 376.926 515.287 377.32 516.639 378.071C517.992 378.822 519.131 379.905 519.95 381.219L658.834 603.689C659.704 605.07 660.188 606.66 660.235 608.292C660.282 609.925 659.89 611.539 659.101 612.969C658.312 614.398 657.154 615.589 655.749 616.417C654.343 617.246 652.741 617.681 651.11 617.679H567.751C566.128 617.671 564.536 617.23 563.14 616.4C561.745 615.57 560.596 614.383 559.812 612.959C559.028 611.536 558.639 609.929 558.683 608.305C558.728 606.68 559.205 605.097 560.065 603.719L566.521 593.349C567.426 591.899 567.906 590.223 567.906 588.513C567.906 586.803 567.426 585.127 566.521 583.677L519.95 509.082C519.134 507.767 517.996 506.681 516.645 505.928C515.294 505.174 513.774 504.777 512.227 504.774C510.68 504.771 509.158 505.162 507.804 505.91C506.45 506.659 505.309 507.74 504.487 509.052Z" fill="white"/>
</svg>
