<svg width="2048" height="1024" viewBox="0 0 2048 1024" fill="none" xmlns="http://www.w3.org/2000/svg">
<path d="M0 128C0 57.3076 57.3076 0 128 0H1920C1990.69 0 2048 57.3076 2048 128V896C2048 966.692 1990.69 1024 1920 1024H128C57.3076 1024 0 966.692 0 896V128Z" fill="white"/>
<path d="M370.91 536.565L301.565 647.5C294.905 658.155 302.565 672 315.13 672H561.26C575.395 672 584.015 656.45 576.525 644.46L399.745 361.615C388.775 344.065 363.245 344.065 352.245 361.615L173.565 647.5C166.905 658.155 174.565 672 187.13 672H227.085C229.12 672 231.122 671.482 232.902 670.496C234.682 669.509 236.181 668.086 237.26 666.36L370.91 452.5C371.449 451.636 372.199 450.924 373.09 450.43C373.98 449.936 374.982 449.677 376 449.677C377.018 449.677 378.02 449.936 378.91 450.43C379.801 450.924 380.551 451.636 381.09 452.5L472.525 598.8C473.098 599.708 473.416 600.754 473.447 601.827C473.478 602.901 473.22 603.963 472.701 604.903C472.181 605.842 471.419 606.626 470.494 607.17C469.569 607.715 468.514 608.002 467.44 608H412.56C411.491 607.995 410.443 607.705 409.525 607.159C408.606 606.614 407.849 605.832 407.333 604.897C406.817 603.961 406.561 602.904 406.59 601.836C406.62 600.767 406.934 599.726 407.5 598.82L411.75 592C412.346 591.047 412.662 589.945 412.662 588.82C412.662 587.696 412.346 586.594 411.75 585.64L381.09 536.585C380.553 535.72 379.804 535.006 378.914 534.511C378.025 534.015 377.024 533.754 376.006 533.752C374.987 533.75 373.985 534.007 373.094 534.499C372.202 534.991 371.451 535.702 370.91 536.565Z" fill="#00913A"/>
<path d="M1812.15 393.833L1788.97 385.251C1786.95 384.45 1784.54 385.651 1783.73 387.652C1782.92 389.653 1784.13 392.055 1786.15 392.855L1799.62 397.842L1786.55 402.458C1784.54 403.259 1783.33 405.66 1784.14 407.661C1784.54 409.262 1786.15 410.463 1787.76 410.463C1788.17 410.463 1788.57 410.463 1789.38 410.063L1812.11 402.027C1812.99 401.919 1813.83 401.554 1814.42 400.863C1815.63 399.76 1816.2 397.989 1815.58 396.454C1815.01 395.036 1813.62 394.019 1812.15 393.833Z" fill="#00913A"/>
<path d="M1728.1 426.075C1726.49 426.075 1725.28 425.274 1724.47 423.673C1723.67 421.672 1724.47 419.27 1726.49 418.47L1749.87 408.063C1750.39 407.856 1750.94 407.756 1751.48 407.757C1752.02 407.756 1752.57 407.856 1753.1 408.063C1753.61 408.266 1754.04 408.572 1754.39 408.948C1754.69 409.263 1754.94 409.636 1755.11 410.065C1755.2 410.293 1755.27 410.526 1755.32 410.762C1755.5 411.573 1755.44 412.453 1755.11 413.267L1744.23 435.681C1743.42 437.282 1741.81 438.082 1740.6 438.082C1740.2 438.082 1739.39 438.082 1738.99 437.682C1736.97 436.881 1736.17 434.48 1736.97 432.479L1743.19 419.677L1729.71 425.674C1729.31 426.075 1728.91 426.075 1728.1 426.075Z" fill="#00913A"/>
<path d="M1132.7 632.996C1141.16 636.999 1149.63 639 1158.9 639C1162.93 639 1167.36 638.6 1172.61 637.799C1177.44 636.999 1180.67 636.198 1182.28 635.398V627.393C1177.85 626.593 1173.01 623.791 1167.77 619.789C1162.93 615.786 1157.29 609.783 1151.64 601.778L1107.7 542.543L1139.55 502.92C1144.39 496.916 1149.63 492.914 1154.87 490.112C1160.11 487.311 1166.16 486.11 1172.61 486.11V477.305H1166.16C1154.47 477.305 1145.19 479.706 1138.74 484.109C1132.29 488.512 1125.44 494.915 1118.59 503.32L1078.68 553.35V457.293C1078.68 446.087 1077.47 437.281 1075.86 430.878C1074.24 424.474 1071.42 420.071 1066.99 417.27C1062.55 414.468 1056.51 413.267 1048.85 413.267H1009.34V423.273H1012.57C1022.65 423.273 1028.69 426.475 1031.51 432.479C1034.34 438.482 1035.55 446.887 1035.55 456.893V635.398H1078.28V569.359L1109.72 611.784C1116.98 622.19 1124.63 628.994 1132.7 632.996Z" fill="#00913A"/>
<path fill-rule="evenodd" clip-rule="evenodd" d="M788.839 638.998C779.568 638.998 771.505 637.797 764.249 635.796C757.396 633.395 751.35 630.593 746.512 626.591C741.675 622.588 738.047 617.786 735.628 612.182C733.209 606.579 732 600.175 732 593.371C732 582.565 734.419 573.36 739.659 565.755C744.497 558.151 753.768 552.547 766.668 548.545C779.568 544.543 798.111 542.541 821.895 542.541H826.732C826.732 528.933 825.523 518.127 823.104 510.122C820.686 502.118 817.058 496.514 812.22 493.312C807.383 490.111 801.739 488.109 795.289 488.109C787.63 488.109 781.18 490.111 775.133 493.713C769.087 497.715 764.652 505.72 762.234 518.527H744.093C744.093 512.524 744.497 506.52 745.303 500.517C746.109 494.513 748.528 488.91 752.559 484.507C756.59 480.105 763.04 476.903 772.312 475.302C781.583 473.701 791.661 472.9 802.545 472.9C813.429 472.9 823.104 474.501 831.57 477.303C840.035 480.105 847.291 484.507 852.935 490.511C858.982 496.514 863.416 503.719 866.238 512.924C869.06 521.729 870.672 532.536 870.672 544.543V636.196H842.454L830.763 620.988H829.151C826.329 625.79 821.492 630.193 814.639 633.795C806.98 636.997 798.917 638.998 788.839 638.998ZM798.917 621.788C806.173 621.788 812.22 619.387 817.058 614.184C821.895 609.381 825.12 604.178 827.135 599.375V557.35H821.895C805.77 557.35 794.483 560.152 787.63 566.155C780.777 572.159 777.149 580.964 777.149 592.971C777.149 602.577 779.165 609.781 782.793 614.584C786.824 619.387 792.064 621.788 798.917 621.788Z" fill="#00913A"/>
<path d="M912.193 635.395V520.928C912.193 510.922 910.984 502.517 908.162 496.513C905.34 490.51 899.293 487.308 889.215 487.308H886.394V477.302H919.046C926.705 477.302 932.349 478.103 936.783 480.104C941.217 482.105 944.442 485.307 946.861 489.709C950.892 486.107 956.133 482.505 962.986 478.903C969.839 475.301 978.304 473.7 988.382 473.7C993.219 473.7 997.654 474.1 1001.68 475.301C1005.72 476.502 1008.94 478.102 1011.76 480.504C1015.39 483.306 1018.21 486.507 1020.23 490.11C1021.94 493.51 1022.78 495.178 1022.99 495.356L1006.12 508.52C1004.1 505.719 1001.28 502.517 997.251 499.715C993.219 496.914 988.785 495.313 983.142 495.313C976.289 495.313 970.242 496.513 965.404 498.514C960.567 500.516 956.536 502.917 953.714 506.119C953.798 506.954 953.882 507.755 953.963 508.52C954.268 511.423 954.52 513.824 954.52 515.725C954.923 518.126 954.923 520.527 954.923 522.128V635.395H912.193Z" fill="#00913A"/>
<path d="M1023.05 495.313L1022.99 495.356C1023.03 495.388 1023.05 495.373 1023.05 495.313Z" fill="#00913A"/>
<path d="M1211.71 635.395V520.928C1211.71 510.922 1210.5 502.517 1207.68 496.513C1204.86 490.51 1198.81 487.308 1188.73 487.308H1185.51V477.302H1218.16C1225.82 477.302 1231.46 478.103 1235.9 480.104C1240.33 482.105 1243.55 485.307 1245.97 489.709C1250 486.107 1255.24 482.505 1262.1 478.903C1268.95 475.301 1277.42 473.7 1287.49 473.7C1292.33 473.7 1296.77 474.1 1300.8 475.301C1304.83 476.502 1308.05 478.102 1310.87 480.504C1314.5 483.306 1317.32 486.507 1319.34 490.11C1321.05 493.511 1321.89 495.178 1322.11 495.356L1305.23 508.52C1303.22 505.719 1300.39 502.517 1296.36 499.715C1292.33 496.914 1287.9 495.313 1282.25 495.313C1275.4 495.313 1269.35 496.513 1264.52 498.514C1259.68 500.516 1255.65 502.917 1252.83 506.119C1252.91 506.955 1252.99 507.756 1253.07 508.521C1253.38 511.424 1253.63 513.825 1253.63 515.725C1254.04 518.126 1254.04 520.527 1254.04 522.128V635.395H1211.71Z" fill="#00913A"/>
<path d="M1322.16 495.313L1322.11 495.356C1322.14 495.388 1322.16 495.373 1322.16 495.313Z" fill="#00913A"/>
<path fill-rule="evenodd" clip-rule="evenodd" d="M1357.64 628.191C1369.33 635.395 1382.63 638.997 1397.95 638.997C1410.04 638.997 1420.12 636.996 1428.99 632.593C1437.05 628.591 1443.5 624.188 1448.74 618.585C1453.98 612.982 1458.01 607.779 1461.24 602.976L1451.16 595.371C1445.51 603.376 1439.06 610.18 1431.81 615.383C1424.55 620.586 1415.28 623.388 1403.99 623.388C1393.11 623.388 1384.64 618.585 1377.79 609.38C1370.94 600.174 1367.71 584.565 1367.71 562.152H1466.88L1468.09 540.939C1468.09 527.732 1464.86 515.725 1458.41 505.719C1451.96 495.713 1443.1 487.708 1432.21 482.105C1420.92 476.502 1408.83 473.7 1395.12 473.7C1381.42 473.7 1368.92 476.902 1358.04 483.306C1346.75 489.309 1338.29 498.514 1331.84 510.922C1325.39 522.929 1322.16 538.138 1322.16 556.148C1322.16 572.158 1325.39 586.166 1331.43 598.573C1337.48 610.981 1346.35 620.986 1357.64 628.191ZM1422.54 547.343H1366.5C1366.5 532.534 1368.12 520.928 1370.53 512.122C1373.36 503.718 1376.58 497.714 1381.02 494.112C1385.45 490.51 1389.88 488.909 1394.72 488.909C1402.78 488.909 1409.64 492.911 1414.88 501.316C1420.12 509.721 1422.54 524.93 1422.54 547.343Z" fill="#00913A"/>
<path fill-rule="evenodd" clip-rule="evenodd" d="M1561.61 638.997C1546.29 638.997 1532.99 635.395 1521.3 628.191C1510.01 620.986 1501.15 610.981 1495.1 598.573C1489.05 586.166 1485.83 572.158 1485.83 556.148C1485.83 538.138 1489.05 522.929 1495.5 510.922C1501.95 498.514 1510.42 489.309 1521.7 483.306C1532.59 476.902 1545.08 473.7 1558.79 473.7C1572.5 473.7 1584.59 476.502 1595.88 482.105C1606.76 487.708 1615.63 495.713 1622.08 505.719C1628.53 515.725 1631.75 527.732 1631.75 540.939L1630.55 562.152H1531.38C1531.38 584.565 1534.6 600.174 1541.46 609.38C1548.31 618.585 1556.78 623.388 1567.66 623.388C1578.95 623.388 1588.22 620.586 1595.47 615.383C1602.73 610.18 1609.18 603.376 1614.82 595.371L1624.9 602.976C1621.68 607.779 1617.65 612.982 1612.41 618.585C1607.16 624.188 1600.71 628.591 1592.65 632.593C1583.78 636.996 1573.71 638.997 1561.61 638.997ZM1530.17 547.343H1586.2C1586.2 524.93 1583.78 509.721 1578.54 501.316C1573.3 492.911 1566.45 488.909 1558.39 488.909C1553.55 488.909 1549.12 490.51 1544.68 494.112C1540.25 497.714 1537.02 503.718 1534.2 512.122C1531.78 520.928 1530.17 532.534 1530.17 547.343Z" fill="#00913A"/>
<path d="M1663.6 520.928V635.395H1707.14V498.915C1710.36 496.513 1713.99 494.512 1718.83 492.911C1723.26 491.31 1728.9 490.51 1734.95 490.51C1741 490.51 1746.64 492.111 1751.08 494.912C1755.51 497.714 1759.14 502.517 1761.96 508.921C1764.78 515.725 1765.99 524.13 1765.99 535.336V635.395H1808.72V535.736C1808.72 520.928 1806.3 509.321 1801.46 500.115C1796.63 490.91 1789.77 484.506 1780.5 480.104C1771.23 475.701 1759.54 473.7 1745.83 473.7C1732.53 473.7 1722.05 475.701 1714.79 478.903C1707.54 482.105 1701.9 485.707 1697.86 489.709C1695.45 485.307 1692.22 482.105 1687.79 480.104C1683.35 478.103 1677.71 477.302 1670.05 477.302H1637.4V487.308H1640.62C1650.7 487.308 1656.75 490.51 1659.57 496.513C1662.39 502.517 1663.6 510.922 1663.6 520.928Z" fill="#00913A"/>
<path d="M1855.88 422.64L1842.99 416.469C1840.97 415.668 1838.56 416.469 1837.75 418.47C1836.94 420.471 1837.75 422.873 1839.76 423.673L1861.66 434.153C1861.94 434.367 1862.25 434.534 1862.58 434.653C1863.01 434.88 1863.62 434.88 1863.95 434.88L1863.98 434.88C1864.4 434.88 1865.17 434.869 1865.56 434.48C1866.48 434.116 1867.15 433.421 1867.53 432.583C1867.54 432.549 1867.56 432.514 1867.58 432.479C1867.74 432.081 1867.84 431.667 1867.87 431.254C1867.9 430.982 1867.89 430.707 1867.87 430.431C1867.83 430.041 1867.73 429.652 1867.58 429.276L1857.1 406.062C1856.29 404.061 1853.87 403.26 1851.86 404.061C1849.84 404.861 1849.04 407.263 1849.84 409.264L1855.88 422.64Z" fill="#00913A"/>
<path d="M1872.98 489.915C1872.83 491.63 1873.92 493.396 1875.57 494.086C1875.71 494.159 1875.85 494.223 1876 494.278C1876.58 494.513 1876.91 494.513 1877.25 494.513C1877.78 494.513 1878.14 494.513 1878.44 494.399C1879.3 494.211 1879.95 493.784 1880.39 493.062C1881.16 492.226 1881.6 491.097 1881.53 489.982L1889.75 468.097C1890.55 466.096 1889.34 463.694 1887.33 462.893C1885.31 462.093 1882.89 463.294 1882.09 465.295L1877.35 477.923L1872.82 465.295C1872.01 463.294 1869.59 462.093 1867.58 462.893C1865.56 463.694 1864.35 466.096 1865.16 468.097L1872.98 489.915Z" fill="#00913A"/>
<path d="M1841.02 544.242C1841.01 544.21 1840.99 544.177 1840.97 544.144C1840.82 543.769 1840.73 543.38 1840.69 542.989C1840.65 542.661 1840.66 542.332 1840.7 542.011C1840.74 541.65 1840.83 541.291 1840.97 540.944L1851.86 518.53C1852.66 516.529 1855.08 515.728 1857.1 516.529C1859.11 517.329 1859.92 519.731 1859.11 521.732L1852.95 534.431L1865.97 528.534C1867.98 527.734 1870.4 528.534 1871.21 530.536C1872.01 532.537 1871.21 534.938 1869.19 535.739L1847.08 545.579C1846.3 546.225 1845.37 546.548 1844.6 546.548C1844.26 546.548 1843.65 546.548 1843.22 546.315C1842.73 546.138 1842.3 545.86 1841.92 545.48C1841.53 545.133 1841.23 544.71 1841.02 544.242Z" fill="#00913A"/>
</svg>
