<svg width="1024" height="1024" viewBox="0 0 1024 1024" fill="none" xmlns="http://www.w3.org/2000/svg">
<path d="M0 128C0 57.3076 57.3076 0 128 0H896C966.692 0 1024 57.3076 1024 128V896C1024 966.692 966.692 1024 896 1024H128C57.3076 1024 0 966.692 0 896V128Z" fill="#00913A"/>
<path d="M506.91 420.565L437.565 531.5C430.905 542.155 438.565 556 451.13 556H697.26C711.395 556 720.015 540.45 712.525 528.46L535.745 245.615C524.775 228.065 499.245 228.065 488.245 245.615L309.565 531.5C302.905 542.155 310.565 556 323.13 556H363.085C365.12 556 367.122 555.482 368.902 554.495C370.682 553.509 372.181 552.085 373.26 550.36L506.91 336.5C507.449 335.636 508.199 334.923 509.09 334.429C509.98 333.936 510.982 333.676 512 333.676C513.018 333.676 514.02 333.936 514.91 334.429C515.801 334.923 516.551 335.636 517.09 336.5L608.525 482.8C609.098 483.708 609.416 484.753 609.447 485.827C609.478 486.9 609.22 487.962 608.701 488.902C608.181 489.842 607.419 490.625 606.494 491.17C605.569 491.715 604.514 492.001 603.44 492H548.56C547.491 491.995 546.443 491.704 545.525 491.159C544.606 490.613 543.849 489.832 543.333 488.896C542.817 487.96 542.561 486.903 542.59 485.835C542.62 484.767 542.934 483.726 543.5 482.82L547.75 476C548.346 475.046 548.662 473.944 548.662 472.82C548.662 471.695 548.346 470.593 547.75 469.64L517.09 420.585C516.553 419.72 515.804 419.006 514.914 418.51C514.025 418.015 513.024 417.753 512.006 417.751C510.987 417.749 509.985 418.007 509.094 418.499C508.202 418.991 507.451 419.702 506.91 420.565Z" fill="white"/>
<path d="M835.714 661.703L820.74 656.162C819.438 655.645 817.876 656.42 817.355 657.712C816.835 659.005 817.616 660.555 818.918 661.072L827.617 664.292L819.18 667.272C817.878 667.789 817.097 669.34 817.618 670.632C817.878 671.666 818.919 672.441 819.961 672.441C820.221 672.441 820.482 672.441 821.003 672.182L835.69 666.994C836.259 666.924 836.8 666.688 837.181 666.242C837.961 665.53 838.327 664.387 837.928 663.396C837.559 662.48 836.666 661.823 835.714 661.703Z" fill="white"/>
<path d="M781.422 682.521C780.381 682.521 779.599 682.004 779.079 680.97C778.558 679.678 779.079 678.127 780.381 677.61L795.483 670.891C795.821 670.757 796.176 670.693 796.526 670.693C796.875 670.693 797.23 670.757 797.568 670.891C797.898 671.022 798.178 671.22 798.403 671.463C798.597 671.666 798.757 671.907 798.868 672.183C798.928 672.331 798.973 672.482 799.006 672.634C799.121 673.158 799.082 673.726 798.87 674.251L791.839 688.723C791.319 689.757 790.277 690.274 789.496 690.274C789.235 690.274 788.715 690.274 788.454 690.015C787.152 689.498 786.632 687.948 787.152 686.656L791.168 678.39L782.464 682.262C782.203 682.521 781.943 682.521 781.422 682.521Z" fill="white"/>
<path d="M396.827 816.124C402.295 818.708 407.763 820 413.752 820C416.356 820 419.22 819.742 422.605 819.225C425.73 818.708 427.813 818.191 428.854 817.674V812.506C425.99 811.989 422.866 810.18 419.48 807.596C416.356 805.012 412.71 801.135 409.065 795.967L380.682 757.721L401.253 732.137C404.378 728.261 407.763 725.677 411.148 723.868C414.533 722.059 418.439 721.284 422.605 721.284V715.598H418.439C410.888 715.598 404.899 717.149 400.732 719.992C396.566 722.834 392.14 726.969 387.713 732.396L361.934 764.698V702.677C361.934 695.442 361.153 689.757 360.112 685.622C359.07 681.487 357.247 678.644 354.383 676.836C351.519 675.027 347.613 674.251 342.666 674.251H317.147V680.712H319.231C325.74 680.712 329.646 682.779 331.469 686.655C333.292 690.532 334.073 695.959 334.073 702.419V817.674H361.674V775.035L381.984 802.427C386.671 809.146 391.619 813.54 396.827 816.124Z" fill="white"/>
<path fill-rule="evenodd" clip-rule="evenodd" d="M174.715 819.999C168.726 819.999 163.518 819.224 158.831 817.931C154.405 816.381 150.499 814.572 147.374 811.988C144.249 809.404 141.906 806.303 140.344 802.685C138.781 799.067 138 794.932 138 790.539C138 783.562 139.562 777.618 142.947 772.708C146.072 767.798 152.061 764.18 160.394 761.596C168.726 759.012 180.704 757.72 196.067 757.72H199.192C199.192 748.933 198.41 741.956 196.848 736.788C195.286 731.619 192.942 728.001 189.817 725.934C186.693 723.867 183.047 722.575 178.881 722.575C173.934 722.575 169.768 723.867 165.862 726.192C161.956 728.777 159.092 733.945 157.529 742.214H145.812C145.812 738.338 146.072 734.462 146.593 730.586C147.114 726.709 148.676 723.091 151.28 720.249C153.884 717.406 158.05 715.339 164.039 714.305C170.028 713.271 176.538 712.755 183.568 712.755C190.599 712.755 196.848 713.788 202.316 715.597C207.784 717.406 212.471 720.249 216.117 724.125C220.023 728.001 222.887 732.653 224.71 738.597C226.532 744.282 227.574 751.259 227.574 759.012V818.19H209.347L201.795 808.37H200.754C198.931 811.471 195.806 814.314 191.38 816.639C186.432 818.707 181.225 819.999 174.715 819.999ZM181.225 808.887C185.912 808.887 189.818 807.336 192.942 803.977C196.067 800.876 198.15 797.516 199.452 794.415V767.281H196.067C185.651 767.281 178.36 769.09 173.934 772.966C169.507 776.843 167.164 782.528 167.164 790.281C167.164 796.483 168.466 801.134 170.809 804.235C173.413 807.336 176.798 808.887 181.225 808.887Z" fill="white"/>
<path d="M254.394 817.672V743.764C254.394 737.304 253.613 731.877 251.79 728.001C249.968 724.124 246.062 722.057 239.552 722.057H237.729V715.597H258.821C263.768 715.597 267.414 716.113 270.278 717.406C273.142 718.698 275.225 720.765 276.788 723.608C279.392 721.282 282.777 718.956 287.203 716.63C291.63 714.304 297.098 713.271 303.608 713.271C306.732 713.271 309.597 713.529 312.201 714.304C314.805 715.08 316.888 716.113 318.71 717.664C321.054 719.473 322.877 721.54 324.179 723.866C325.285 726.062 325.827 727.139 325.965 727.254L315.065 735.753C313.763 733.944 311.94 731.877 309.336 730.068C306.732 728.259 303.868 727.225 300.223 727.225C295.796 727.225 291.89 728.001 288.766 729.293C285.641 730.585 283.037 732.135 281.214 734.203C281.269 734.742 281.323 735.259 281.375 735.753C281.572 737.627 281.735 739.178 281.735 740.405C281.995 741.955 281.995 743.506 281.995 744.54V817.672H254.394Z" fill="white"/>
<path d="M326.001 727.225L325.965 727.254C325.989 727.274 326.001 727.264 326.001 727.225Z" fill="white"/>
<path d="M447.863 817.672V743.764C447.863 737.304 447.082 731.877 445.259 728.001C443.437 724.124 439.531 722.057 433.021 722.057H430.938V715.597H452.03C456.977 715.597 460.622 716.113 463.487 717.406C466.351 718.698 468.434 720.765 469.996 723.608C472.6 721.282 475.985 718.956 480.412 716.63C484.839 714.304 490.307 713.271 496.817 713.271C499.941 713.271 502.806 713.529 505.409 714.304C508.013 715.08 510.096 716.113 511.919 717.664C514.263 719.473 516.085 721.54 517.387 723.866C518.494 726.062 519.036 727.139 519.174 727.254L508.274 735.753C506.972 733.944 505.149 731.877 502.545 730.068C499.941 728.259 497.077 727.225 493.431 727.225C489.005 727.225 485.099 728.001 481.974 729.293C478.85 730.585 476.246 732.135 474.423 734.203C474.477 734.742 474.532 735.259 474.584 735.754C474.781 737.628 474.944 739.178 474.944 740.405C475.204 741.955 475.204 743.506 475.204 744.539V817.672H447.863Z" fill="white"/>
<path d="M519.21 727.225L519.174 727.254C519.198 727.274 519.21 727.264 519.21 727.225Z" fill="white"/>
<path fill-rule="evenodd" clip-rule="evenodd" d="M542.123 813.021C549.675 817.672 558.268 819.998 568.162 819.998C575.974 819.998 582.484 818.706 588.212 815.863C593.42 813.279 597.586 810.437 600.971 806.819C604.357 803.201 606.96 799.841 609.044 796.74L602.534 791.83C598.888 796.999 594.722 801.392 590.035 804.751C585.348 808.111 579.359 809.92 572.068 809.92C565.038 809.92 559.57 806.819 555.143 800.875C550.716 794.931 548.633 784.853 548.633 770.382H612.689L613.47 756.685C613.47 748.157 611.387 740.405 607.221 733.944C603.055 727.484 597.326 722.315 590.296 718.698C583.005 715.08 575.193 713.271 566.34 713.271C557.486 713.271 549.414 715.338 542.384 719.473C535.093 723.349 529.625 729.293 525.459 737.304C521.292 745.056 519.209 754.876 519.209 766.505C519.209 776.842 521.292 785.887 525.198 793.898C529.104 801.909 534.833 808.369 542.123 813.021ZM584.046 760.82H547.852C547.852 751.258 548.894 743.764 550.456 738.079C552.279 732.652 554.362 728.776 557.226 726.45C560.09 724.124 562.955 723.091 566.079 723.091C571.287 723.091 575.714 725.675 579.099 731.102C582.484 736.529 584.046 746.349 584.046 760.82Z" fill="white"/>
<path fill-rule="evenodd" clip-rule="evenodd" d="M673.881 819.998C663.986 819.998 655.393 817.672 647.842 813.021C640.551 808.369 634.823 801.909 630.917 793.898C627.011 785.887 624.928 776.842 624.928 766.505C624.928 754.876 627.011 745.056 631.177 737.304C635.343 729.293 640.812 723.349 648.102 719.473C655.133 715.338 663.205 713.271 672.058 713.271C680.911 713.271 688.723 715.08 696.014 718.698C703.045 722.315 708.773 727.484 712.939 733.944C717.106 740.405 719.189 748.157 719.189 756.685L718.408 770.382H654.352C654.352 784.853 656.435 794.931 660.862 800.875C665.288 806.819 670.756 809.92 677.787 809.92C685.078 809.92 691.067 808.111 695.754 804.751C700.441 801.392 704.607 796.999 708.252 791.83L714.762 796.74C712.679 799.841 710.075 803.201 706.69 806.819C703.305 810.437 699.139 813.279 693.931 815.863C688.202 818.706 681.693 819.998 673.881 819.998ZM653.571 760.82H689.765C689.765 746.349 688.202 736.529 684.817 731.102C681.432 725.675 677.006 723.091 671.798 723.091C668.673 723.091 665.809 724.124 662.945 726.45C660.08 728.776 657.997 732.652 656.175 738.079C654.612 743.764 653.571 751.258 653.571 760.82Z" fill="white"/>
<path d="M739.758 743.764V817.672H767.88V729.551C769.964 728.001 772.307 726.709 775.432 725.675C778.296 724.641 781.941 724.124 785.847 724.124C789.753 724.124 793.399 725.158 796.263 726.967C799.127 728.776 801.471 731.877 803.293 736.012C805.116 740.405 805.897 745.832 805.897 753.067V817.672H833.498V753.326C833.498 743.764 831.936 736.27 828.812 730.326C825.687 724.383 821.26 720.248 815.271 717.406C809.282 714.563 801.731 713.271 792.878 713.271C784.285 713.271 777.515 714.563 772.828 716.63C768.141 718.698 764.495 721.023 761.891 723.608C760.329 720.765 758.246 718.698 755.382 717.406C752.517 716.113 748.872 715.597 743.925 715.597H722.833V722.057H724.916C731.426 722.057 735.332 724.124 737.154 728.001C738.977 731.877 739.758 737.304 739.758 743.764Z" fill="white"/>
<path d="M863.961 680.303L855.634 676.318C854.332 675.801 852.77 676.318 852.249 677.61C851.728 678.903 852.249 680.453 853.551 680.97L867.691 687.736C867.875 687.875 868.074 687.982 868.288 688.06C868.565 688.206 868.959 688.206 869.174 688.206L869.195 688.206C869.462 688.206 869.962 688.199 870.216 687.948C870.808 687.713 871.238 687.264 871.483 686.723C871.495 686.701 871.506 686.678 871.518 686.655C871.621 686.399 871.683 686.132 871.706 685.865C871.722 685.689 871.721 685.511 871.702 685.333C871.676 685.082 871.615 684.83 871.518 684.588L864.748 669.599C864.227 668.307 862.664 667.79 861.362 668.307C860.06 668.824 859.54 670.374 860.06 671.666L863.961 680.303Z" fill="white"/>
<path d="M875.006 723.74C874.911 724.848 875.615 725.988 876.68 726.433C876.771 726.48 876.863 726.522 876.958 726.558C877.329 726.709 877.547 726.709 877.765 726.709C878.108 726.709 878.339 726.709 878.531 726.635C879.091 726.514 879.511 726.238 879.79 725.772C880.29 725.232 880.576 724.503 880.528 723.784L885.837 709.653C886.358 708.361 885.576 706.81 884.274 706.293C882.973 705.777 881.41 706.552 880.889 707.844L877.826 715.998L874.902 707.844C874.381 706.552 872.819 705.777 871.517 706.293C870.215 706.81 869.434 708.361 869.954 709.653L875.006 723.74Z" fill="white"/>
<path d="M854.364 758.818C854.353 758.797 854.342 758.776 854.331 758.755C854.234 758.512 854.173 758.261 854.147 758.009C854.125 757.797 854.127 757.585 854.154 757.377C854.183 757.144 854.241 756.912 854.331 756.688L861.362 742.216C861.883 740.924 863.445 740.407 864.747 740.924C866.049 741.441 866.57 742.992 866.049 744.284L862.066 752.483L870.476 748.676C871.778 748.159 873.34 748.676 873.861 749.968C874.382 751.26 873.861 752.811 872.559 753.327L858.279 759.681C857.773 760.098 857.171 760.306 856.675 760.306C856.458 760.306 856.059 760.306 855.782 760.156C855.468 760.042 855.187 759.862 854.94 759.617C854.693 759.393 854.5 759.12 854.364 758.818Z" fill="white"/>
</svg>
